  0
SECTION
  2
HEADER
  9
$ACADVER
  1
AC1014
  9
$HANDSEED
  5
FFFF
  9
$MEASUREMENT
 70
     1
  0
ENDSEC
  0
SECTION
  2
TABLES
  0
TABLE
  2
VPORT
  5
8
330
0
100
AcDbSymbolTable
 70
     4
  0
VPORT
  5
2E
330
8
100
AcDbSymbolTableRecord
100
AcDbViewportTableRecord
  2
*ACTIVE
 70
     0
 10
0.0
 20
0.0
 11
1.0
 21
1.0
 12
210.0
 22
148.5
 13
0.0
 23
0.0
 14
10.0
 24
10.0
 15
10.0
 25
10.0
 16
0.0
 26
0.0
 36
1.0
 17
0.0
 27
0.0
 37
0.0
 40
341.0
 41
1.24
 42
50.0
 43
0.0
 44
0.0
 50
0.0
 51
0.0
 71
     0
 72
   100
 73
     1
 74
     3
 75
     0
 76
     0
 77
     0
 78
     0
  0
ENDTAB
  0
TABLE
  2
LTYPE
  5
5
330
0
100
AcDbSymbolTable
 70
     1
  0
LTYPE
  5
14
330
5
100
AcDbSymbolTableRecord
100
AcDbLinetypeTableRecord
  2
BYBLOCK
 70
     0
  3

 72
    65
 73
     0
 40
0.0
  0
LTYPE
  5
15
330
5
100
AcDbSymbolTableRecord
100
AcDbLinetypeTableRecord
  2
BYLAYER
 70
     0
  3

 72
    65
 73
     0
 40
0.0
  0
LTYPE
  5
16
330
5
100
AcDbSymbolTableRecord
100
AcDbLinetypeTableRecord
  2
CONTINUOUS
 70
     0
  3
Solid line
 72
    65
 73
     0
 40
0.0
  0
ENDTAB
  0
TABLE
  2
LAYER
  5
2
100
AcDbSymbolTable
 70
2
  0
LAYER
  5
50
100
AcDbSymbolTableRecord
100
AcDbLayerTableRecord
  2
0
 70
0
  6
CONTINUOUS
  0
LAYER
  5
51
100
AcDbSymbolTableRecord
100
AcDbLayerTableRecord
  2
Layer_1
 70
0
  6
CONTINUOUS
  0
ENDTAB
  0
TABLE
  2
STYLE
  5
3
330
0
100
AcDbSymbolTable
 70
     1
  0
STYLE
  5
11
330
3
100
AcDbSymbolTableRecord
100
AcDbTextStyleTableRecord
  2
STANDARD
 70
     0
 40
0.0
 41
1.0
 50
0.0
 71
     0
 42
2.5
  3
txt
  4

  0
ENDTAB
  0
TABLE
  2
VIEW
  5
6
330
0
100
AcDbSymbolTable
 70
     0
  0
ENDTAB
  0
TABLE
  2
UCS
  5
7
330
0
100
AcDbSymbolTable
 70
     0
  0
ENDTAB
  0
TABLE
  2
APPID
  5
9
330
0
100
AcDbSymbolTable
 70
     2
  0
APPID
  5
12
330
9
100
AcDbSymbolTableRecord
100
AcDbRegAppTableRecord
  2
ACAD
 70
     0
  0
ENDTAB
  0
TABLE
  2
DIMSTYLE
  5
A
330
0
100
AcDbSymbolTable
 70
     1
  0
DIMSTYLE
105
27
330
A
100
AcDbSymbolTableRecord
100
AcDbDimStyleTableRecord
  2
ISO-25
 70
     0
  3

  4

  5

  6

  7

 40
1.0
 41
2.5
 42
0.625
 43
3.75
 44
1.25
 45
0.0
 46
0.0
 47
0.0
 48
0.0
140
2.5
141
2.5
142
0.0
143
0.03937007874016
144
1.0
145
0.0
146
1.0
147
0.625
 71
     0
 72
     0
 73
     0
 74
     0
 75
     0
 76
     0
 77
     1
 78
     8
170
     0
171
     3
172
     1
173
     0
174
     0
175
     0
176
     0
177
     0
178
     0
270
     2
271
     2
272
     2
273
     2
274
     3
340
11
275
     0
280
     0
281
     0
282
     0
283
     0
284
     8
285
     0
286
     0
287
     3
288
     0
  0
ENDTAB
  0
TABLE
  2
BLOCK_RECORD
  5
1
330
0
100
AcDbSymbolTable
 70
     1
  0
BLOCK_RECORD
  5
1F
330
1
100
AcDbSymbolTableRecord
100
AcDbBlockTableRecord
  2
*MODEL_SPACE
  0
BLOCK_RECORD
  5
1B
330
1
100
AcDbSymbolTableRecord
100
AcDbBlockTableRecord
  2
*PAPER_SPACE
  0
ENDTAB
  0
ENDSEC
  0
SECTION
  2
BLOCKS
  0
BLOCK
  5
20
330
1F
100
AcDbEntity
  8
0
100
AcDbBlockBegin
  2
*MODEL_SPACE
 70
     0
 10
0.0
 20
0.0
 30
0.0
  3
*MODEL_SPACE
  1

  0
ENDBLK
  5
21
330
1F
100
AcDbEntity
  8
0
100
AcDbBlockEnd
  0
BLOCK
  5
1C
330
1B
100
AcDbEntity
 67
     1
  8
0
100
AcDbBlockBegin
  2
*PAPER_SPACE
  1

  0
ENDBLK
  5
1D
330
1B
100
AcDbEntity
 67
     1
  8
0
100
AcDbBlockEnd
  0
ENDSEC
  0
SECTION
  2
ENTITIES
  0
SPLINE
  5
100
100
AcDbEntity
  8
Layer_1
 62
7
100
AcDbSpline
 70
8
 71
3
 72
8
 73
4
 74
0
 40
0
 40
0
 40
0
 40
0
 40
1
 40
1
 40
1
 40
1
 10
22.494411
 20
99.253229
 30
0.0
 10
22.199401
 20
99.259570
 30
0.0
 10
21.909125
 20
99.178375
 30
0.0
 10
21.660220
 20
99.019890
 30
0.0
  0
SPLINE
  5
101
100
AcDbEntity
  8
Layer_1
 62
7
100
AcDbSpline
 70
8
 71
3
 72
8
 73
4
 74
0
 40
0
 40
0
 40
0
 40
0
 40
1
 40
1
 40
1
 40
1
 10
21.660220
 20
99.019890
 30
0.0
 10
21.286862
 20
98.900495
 30
0.0
 10
14.270097
 20
94.149068
 30
0.0
 10
19.452193
 20
81.320746
 30
0.0
  0
SPLINE
  5
102
100
AcDbEntity
  8
Layer_1
 62
7
100
AcDbSpline
 70
8
 71
3
 72
8
 73
4
 74
0
 40
0
 40
0
 40
0
 40
0
 40
1
 40
1
 40
1
 40
1
 10
19.452193
 20
81.320746
 30
0.0
 10
20.188124
 20
79.609548
 30
0.0
 10
20.401250
 20
77.718847
 30
0.0
 10
20.064732
 20
75.886758
 30
0.0
  0
SPLINE
  5
103
100
AcDbEntity
  8
Layer_1
 62
7
100
AcDbSpline
 70
8
 71
3
 72
8
 73
4
 74
0
 40
0
 40
0
 40
0
 40
0
 40
1
 40
1
 40
1
 40
1
 10
20.064732
 20
75.886758
 30
0.0
 10
16.405890
 20
74.677088
 30
0.0
 10
2.096652
 20
69.524040
 30
0.0
 10
0.752602
 20
56.755444
 30
0.0
  0
SPLINE
  5
104
100
AcDbEntity
  8
Layer_1
 62
7
100
AcDbSpline
 70
8
 71
3
 72
8
 73
4
 74
0
 40
0
 40
0
 40
0
 40
0
 40
1
 40
1
 40
1
 40
1
 10
0.752602
 20
56.755444
 30
0.0
 10
0.704603
 20
56.211428
 30
0.0
 10
0.957388
 20
55.684596
 30
0.0
 10
1.411784
 20
55.381639
 30
0.0
  0
SPLINE
  5
105
100
AcDbEntity
  8
Layer_1
 62
7
100
AcDbSpline
 70
8
 71
3
 72
8
 73
4
 74
0
 40
0
 40
0
 40
0
 40
0
 40
1
 40
1
 40
1
 40
1
 10
1.411784
 20
55.381639
 30
0.0
 10
1.854841
 20
55.081653
 30
0.0
 10
2.424532
 20
55.041621
 30
0.0
 10
2.905188
 20
55.276698
 30
0.0
  0
LINE
  5
106
100
AcDbEntity
  8
Layer_1
 62
7
100
AcDbLine
 10
2.905188
 20
55.276698
 30
0.0
 11
3.978562
 21
55.845488
 31
0.0
  0
SPLINE
  5
107
100
AcDbEntity
  8
Layer_1
 62
7
100
AcDbSpline
 70
8
 71
3
 72
8
 73
4
 74
0
 40
0
 40
0
 40
0
 40
0
 40
1
 40
1
 40
1
 40
1
 10
3.978562
 20
55.845488
 30
0.0
 10
1.970492
 20
50.298770
 30
0.0
 10
1.741096
 20
44.264096
 30
0.0
 10
3.322285
 20
38.580939
 30
0.0
  0
SPLINE
  5
108
100
AcDbEntity
  8
Layer_1
 62
7
100
AcDbSpline
 70
8
 71
3
 72
8
 73
4
 74
0
 40
0
 40
0
 40
0
 40
0
 40
1
 40
1
 40
1
 40
1
 10
3.322285
 20
38.580939
 30
0.0
 10
3.477648
 20
38.049423
 30
0.0
 10
3.914364
 20
37.647511
 30
0.0
 10
4.456925
 20
37.536723
 30
0.0
  0
SPLINE
  5
109
100
AcDbEntity
  8
Layer_1
 62
7
100
AcDbSpline
 70
8
 71
3
 72
8
 73
4
 74
0
 40
0
 40
0
 40
0
 40
0
 40
1
 40
1
 40
1
 40
1
 10
4.456925
 20
37.536723
 30
0.0
 10
5.010751
 20
37.407789
 30
0.0
 10
5.589740
 20
37.604562
 30
0.0
 10
5.950314
 20
38.044259
 30
0.0
  0
LINE
  5
10a
100
AcDbEntity
  8
Layer_1
 62
7
100
AcDbLine
 10
5.950314
 20
38.044259
 30
0.0
 11
6.099083
 21
38.207594
 31
0.0
  0
SPLINE
  5
10b
100
AcDbEntity
  8
Layer_1
 62
7
100
AcDbSpline
 70
8
 71
3
 72
8
 73
4
 74
0
 40
0
 40
0
 40
0
 40
0
 40
1
 40
1
 40
1
 40
1
 10
6.099083
 20
38.207594
 30
0.0
 10
6.099083
 20
33.622847
 30
0.0
 10
6.980184
 20
26.962742
 30
0.0
 10
12.072687
 20
23.751927
 30
0.0
  0
SPLINE
  5
10c
100
AcDbEntity
  8
Layer_1
 62
7
100
AcDbSpline
 70
8
 71
3
 72
8
 73
4
 74
0
 40
0
 40
0
 40
0
 40
0
 40
1
 40
1
 40
1
 40
1
 10
12.072687
 20
23.751927
 30
0.0
 10
12.487360
 20
23.485305
 30
0.0
 10
13.006899
 20
23.440509
 30
0.0
 10
13.461089
 20
23.632217
 30
0.0
  0
SPLINE
  5
10d
100
AcDbEntity
  8
Layer_1
 62
7
100
AcDbSpline
 70
8
 71
3
 72
8
 73
4
 74
0
 40
0
 40
0
 40
0
 40
0
 40
1
 40
1
 40
1
 40
1
 10
13.461089
 20
23.632217
 30
0.0
 10
13.912141
 20
23.830649
 30
0.0
 10
14.236272
 20
24.238813
 30
0.0
 10
14.327374
 20
24.723090
 30
0.0
  0
LINE
  5
10e
100
AcDbEntity
  8
Layer_1
 62
7
100
AcDbLine
 10
14.327374
 20
24.723090
 30
0.0
 11
14.627808
 21
26.216481
 31
0.0
  0
SPLINE
  5
10f
100
AcDbEntity
  8
Layer_1
 62
7
100
AcDbSpline
 70
8
 71
3
 72
8
 73
4
 74
0
 40
0
 40
0
 40
0
 40
0
 40
1
 40
1
 40
1
 40
1
 10
14.627808
 20
26.216481
 30
0.0
 10
16.091333
 20
22.692050
 30
0.0
 10
18.570039
 20
18.672243
 30
0.0
 10
22.482753
 20
17.611924
 30
0.0
  0
SPLINE
  5
110
100
AcDbEntity
  8
Layer_1
 62
7
100
AcDbSpline
 70
8
 71
3
 72
8
 73
4
 74
0
 40
0
 40
0
 40
0
 40
0
 40
1
 40
1
 40
1
 40
1
 10
22.482753
 20
17.611924
 30
0.0
 10
23.104997
 20
17.439650
 30
0.0
 10
23.767487
 20
17.686759
 30
0.0
 10
24.124914
 20
18.224450
 30
0.0
  0
SPLINE
  5
111
100
AcDbEntity
  8
Layer_1
 62
7
100
AcDbSpline
 70
8
 71
3
 72
8
 73
4
 74
0
 40
0
 40
0
 40
0
 40
0
 40
1
 40
1
 40
1
 40
1
 10
24.124914
 20
18.224450
 30
0.0
 10
24.124914
 20
18.224450
 30
0.0
 10
29.757788
 20
26.519992
 30
0.0
 10
35.552929
 20
27.126533
 30
0.0
  0
SPLINE
  5
112
100
AcDbEntity
  8
Layer_1
 62
7
100
AcDbSpline
 70
8
 71
3
 72
8
 73
4
 74
0
 40
0
 40
0
 40
0
 40
0
 40
1
 40
1
 40
1
 40
1
 10
35.552929
 20
27.126533
 30
0.0
 10
36.044567
 20
26.668467
 30
0.0
 10
36.506369
 20
26.179389
 30
0.0
 10
36.935499
 20
25.662301
 30
0.0
  0
SPLINE
  5
113
100
AcDbEntity
  8
Layer_1
 62
7
100
AcDbSpline
 70
8
 71
3
 72
8
 73
4
 74
0
 40
0
 40
0
 40
0
 40
0
 40
1
 40
1
 40
1
 40
1
 10
36.935499
 20
25.662301
 30
0.0
 10
37.040898
 20
25.417044
 30
0.0
 10
37.210110
 20
25.204521
 30
0.0
 10
37.425520
 20
25.046855
 30
0.0
  0
SPLINE
  5
114
100
AcDbEntity
  8
Layer_1
 62
7
100
AcDbSpline
 70
8
 71
3
 72
8
 73
4
 74
0
 40
0
 40
0
 40
0
 40
0
 40
1
 40
1
 40
1
 40
1
 10
37.425520
 20
25.046855
 30
0.0
 10
37.981156
 20
24.304855
 30
0.0
 10
38.470160
 20
23.515222
 30
0.0
 10
38.886830
 20
22.687163
 30
0.0
  0
SPLINE
  5
115
100
AcDbEntity
  8
Layer_1
 62
7
100
AcDbSpline
 70
8
 71
3
 72
8
 73
4
 74
0
 40
0
 40
0
 40
0
 40
0
 40
1
 40
1
 40
1
 40
1
 10
38.886830
 20
22.687163
 30
0.0
 10
38.908164
 20
22.611228
 30
0.0
 10
38.935479
 20
22.537103
 30
0.0
 10
38.968520
 20
22.465482
 30
0.0
  0
SPLINE
  5
116
100
AcDbEntity
  8
Layer_1
 62
7
100
AcDbSpline
 70
8
 71
3
 72
8
 73
4
 74
0
 40
0
 40
0
 40
0
 40
0
 40
1
 40
1
 40
1
 40
1
 10
38.968520
 20
22.465482
 30
0.0
 10
39.074235
 20
22.179400
 30
0.0
 10
39.198966
 20
21.900710
 30
0.0
 10
39.341879
 20
21.631276
 30
0.0
  0
SPLINE
  5
117
100
AcDbEntity
  8
Layer_1
 62
7
100
AcDbSpline
 70
8
 71
3
 72
8
 73
4
 74
0
 40
0
 40
0
 40
0
 40
0
 40
1
 40
1
 40
1
 40
1
 10
39.341879
 20
21.631276
 30
0.0
 10
39.374010
 20
21.566546
 30
0.0
 10
39.409026
 20
21.503287
 30
0.0
 10
39.446820
 20
21.441692
 30
0.0
  0
SPLINE
  5
118
100
AcDbEntity
  8
Layer_1
 62
7
100
AcDbSpline
 70
8
 71
3
 72
8
 73
4
 74
0
 40
0
 40
0
 40
0
 40
0
 40
1
 40
1
 40
1
 40
1
 10
39.446820
 20
21.441692
 30
0.0
 10
39.959896
 20
20.156229
 30
0.0
 10
40.301186
 20
18.808710
 30
0.0
 10
40.461861
 20
17.433995
 30
0.0
  0
SPLINE
  5
119
100
AcDbEntity
  8
Layer_1
 62
7
100
AcDbSpline
 70
8
 71
3
 72
8
 73
4
 74
0
 40
0
 40
0
 40
0
 40
0
 40
1
 40
1
 40
1
 40
1
 10
40.461861
 20
17.433995
 30
0.0
 10
40.853973
 20
14.279490
 30
0.0
 10
42.807650
 20
11.534263
 30
0.0
 10
45.659605
 20
10.130337
 30
0.0
  0
SPLINE
  5
11a
100
AcDbEntity
  8
Layer_1
 62
7
100
AcDbSpline
 70
8
 71
3
 72
8
 73
4
 74
0
 40
0
 40
0
 40
0
 40
0
 40
1
 40
1
 40
1
 40
1
 10
45.659605
 20
10.130337
 30
0.0
 10
47.018690
 20
9.453206
 30
0.0
 10
48.516389
 20
9.100752
 30
0.0
 10
50.034816
 20
9.100718
 30
0.0
  0
SPLINE
  5
11b
100
AcDbEntity
  8
Layer_1
 62
7
100
AcDbSpline
 70
8
 71
3
 72
8
 73
4
 74
0
 40
0
 40
0
 40
0
 40
0
 40
1
 40
1
 40
1
 40
1
 10
50.034816
 20
9.100718
 30
0.0
 10
51.582907
 20
9.085988
 30
0.0
 10
53.111063
 20
9.450499
 30
0.0
 10
54.485827
 20
10.162418
 30
0.0
  0
SPLINE
  5
11c
100
AcDbEntity
  8
Layer_1
 62
7
100
AcDbSpline
 70
8
 71
3
 72
8
 73
4
 74
0
 40
0
 40
0
 40
0
 40
0
 40
1
 40
1
 40
1
 40
1
 10
54.485827
 20
10.162418
 30
0.0
 10
57.285227
 20
11.610031
 30
0.0
 10
59.226716
 20
14.305576
 30
0.0
 10
59.712743
 20
17.419416
 30
0.0
  0
SPLINE
  5
11d
100
AcDbEntity
  8
Layer_1
 62
7
100
AcDbSpline
 70
8
 71
3
 72
8
 73
4
 74
0
 40
0
 40
0
 40
0
 40
0
 40
1
 40
1
 40
1
 40
1
 10
59.712743
 20
17.419416
 30
0.0
 10
60.146903
 20
21.099489
 30
0.0
 10
61.859517
 20
24.510263
 30
0.0
 10
64.551720
 20
27.056529
 30
0.0
  0
SPLINE
  5
11e
100
AcDbEntity
  8
Layer_1
 62
7
100
AcDbSpline
 70
8
 71
3
 72
8
 73
4
 74
0
 40
0
 40
0
 40
0
 40
0
 40
1
 40
1
 40
1
 40
1
 10
64.551720
 20
27.056529
 30
0.0
 10
70.335597
 20
26.466186
 30
0.0
 10
75.947655
 20
18.238369
 30
0.0
 10
75.947655
 20
18.151541
 30
0.0
  0
SPLINE
  5
11f
100
AcDbEntity
  8
Layer_1
 62
7
100
AcDbSpline
 70
8
 71
3
 72
8
 73
4
 74
0
 40
0
 40
0
 40
0
 40
0
 40
1
 40
1
 40
1
 40
1
 10
75.947655
 20
18.151541
 30
0.0
 10
76.222034
 20
17.733600
 30
0.0
 10
76.687349
 20
17.480684
 30
0.0
 10
77.187300
 20
17.477749
 30
0.0
  0
SPLINE
  5
120
100
AcDbEntity
  8
Layer_1
 62
7
100
AcDbSpline
 70
8
 71
3
 72
8
 73
4
 74
0
 40
0
 40
0
 40
0
 40
0
 40
1
 40
1
 40
1
 40
1
 10
77.187300
 20
17.477749
 30
0.0
 10
77.310270
 20
17.453899
 30
0.0
 10
77.436119
 20
17.448601
 30
0.0
 10
77.560658
 20
17.462033
 30
0.0
  0
SPLINE
  5
121
100
AcDbEntity
  8
Layer_1
 62
7
100
AcDbSpline
 70
8
 71
3
 72
8
 73
4
 74
0
 40
0
 40
0
 40
0
 40
0
 40
1
 40
1
 40
1
 40
1
 10
77.560658
 20
17.462033
 30
0.0
 10
81.458432
 20
18.567153
 30
0.0
 10
83.922184
 20
22.525019
 30
0.0
 10
85.415589
 20
26.034509
 30
0.0
  0
LINE
  5
122
100
AcDbEntity
  8
Layer_1
 62
7
100
AcDbLine
 10
85.415589
 20
26.034509
 30
0.0
 11
85.683928
 21
24.631528
 31
0.0
  0
SPLINE
  5
123
100
AcDbEntity
  8
Layer_1
 62
7
100
AcDbSpline
 70
8
 71
3
 72
8
 73
4
 74
0
 40
0
 40
0
 40
0
 40
0
 40
1
 40
1
 40
1
 40
1
 10
85.683928
 20
24.631528
 30
0.0
 10
85.782376
 20
24.149579
 30
0.0
 10
86.111841
 20
23.747020
 30
0.0
 10
86.564807
 20
23.555218
 30
0.0
  0
SPLINE
  5
124
100
AcDbEntity
  8
Layer_1
 62
7
100
AcDbSpline
 70
8
 71
3
 72
8
 73
4
 74
0
 40
0
 40
0
 40
0
 40
0
 40
1
 40
1
 40
1
 40
1
 10
86.564807
 20
23.555218
 30
0.0
 10
87.016598
 20
23.359115
 30
0.0
 10
87.536026
 20
23.398376
 30
0.0
 10
87.953208
 20
23.660159
 30
0.0
  0
SPLINE
  5
125
100
AcDbEntity
  8
Layer_1
 62
7
100
AcDbSpline
 70
8
 71
3
 72
8
 73
4
 74
0
 40
0
 40
0
 40
0
 40
0
 40
1
 40
1
 40
1
 40
1
 10
87.953208
 20
23.660159
 30
0.0
 10
93.030771
 20
26.870977
 30
0.0
 10
93.926811
 20
33.531066
 30
0.0
 10
93.926811
 20
38.115813
 30
0.0
  0
LINE
  5
126
100
AcDbEntity
  8
Layer_1
 62
7
100
AcDbLine
 10
93.926811
 20
38.115813
 30
0.0
 11
94.075583
 21
37.952478
 31
0.0
  0
SPLINE
  5
127
100
AcDbEntity
  8
Layer_1
 62
7
100
AcDbSpline
 70
8
 71
3
 72
8
 73
4
 74
0
 40
0
 40
0
 40
0
 40
0
 40
1
 40
1
 40
1
 40
1
 10
94.075583
 20
37.952478
 30
0.0
 10
94.436163
 20
37.512780
 30
0.0
 10
95.015160
 20
37.316013
 30
0.0
 10
95.568988
 20
37.444957
 30
0.0
  0
SPLINE
  5
128
100
AcDbEntity
  8
Layer_1
 62
7
100
AcDbSpline
 70
8
 71
3
 72
8
 73
4
 74
0
 40
0
 40
0
 40
0
 40
0
 40
1
 40
1
 40
1
 40
1
 10
95.568988
 20
37.444957
 30
0.0
 10
96.111548
 20
37.555745
 30
0.0
 10
96.548264
 20
37.957657
 30
0.0
 10
96.703628
 20
38.489171
 30
0.0
  0
SPLINE
  5
129
100
AcDbEntity
  8
Layer_1
 62
7
100
AcDbSpline
 70
8
 71
3
 72
8
 73
4
 74
0
 40
0
 40
0
 40
0
 40
0
 40
1
 40
1
 40
1
 40
1
 10
96.703628
 20
38.489171
 30
0.0
 10
98.284808
 20
44.172324
 30
0.0
 10
98.055407
 20
50.206992
 30
0.0
 10
96.047335
 20
55.753704
 30
0.0
  0
LINE
  5
12a
100
AcDbEntity
  8
Layer_1
 62
7
100
AcDbLine
 10
96.047335
 20
55.753704
 30
0.0
 11
97.123645
 21
55.184933
 31
0.0
  0
SPLINE
  5
12b
100
AcDbEntity
  8
Layer_1
 62
7
100
AcDbSpline
 70
8
 71
3
 72
8
 73
4
 74
0
 40
0
 40
0
 40
0
 40
0
 40
1
 40
1
 40
1
 40
1
 10
97.123645
 20
55.184933
 30
0.0
 10
97.604301
 20
54.949856
 30
0.0
 10
98.173992
 20
54.989888
 30
0.0
 10
98.617050
 20
55.289874
 30
0.0
  0
SPLINE
  5
12c
100
AcDbEntity
  8
Layer_1
 62
7
100
AcDbSpline
 70
8
 71
3
 72
8
 73
4
 74
0
 40
0
 40
0
 40
0
 40
0
 40
1
 40
1
 40
1
 40
1
 10
98.617050
 20
55.289874
 30
0.0
 10
99.064172
 20
55.603239
 30
0.0
 10
99.304641
 20
56.135634
 30
0.0
 10
99.244153
 20
56.678273
 30
0.0
  0
SPLINE
  5
12d
100
AcDbEntity
  8
Layer_1
 62
7
100
AcDbSpline
 70
8
 71
3
 72
8
 73
4
 74
0
 40
0
 40
0
 40
0
 40
0
 40
1
 40
1
 40
1
 40
1
 10
99.244153
 20
56.678273
 30
0.0
 10
97.855281
 20
69.446851
 30
0.0
 10
83.593755
 20
74.674585
 30
0.0
 10
79.934911
 20
75.809572
 30
0.0
  0
SPLINE
  5
12e
100
AcDbEntity
  8
Layer_1
 62
7
100
AcDbSpline
 70
8
 71
3
 72
8
 73
4
 74
0
 40
0
 40
0
 40
0
 40
0
 40
1
 40
1
 40
1
 40
1
 10
79.934911
 20
75.809572
 30
0.0
 10
79.599219
 20
77.675325
 30
0.0
 10
79.827721
 20
79.598805
 30
0.0
 10
80.591188
 20
81.333983
 30
0.0
  0
SPLINE
  5
12f
100
AcDbEntity
  8
Layer_1
 62
7
100
AcDbSpline
 70
8
 71
3
 72
8
 73
4
 74
0
 40
0
 40
0
 40
0
 40
0
 40
1
 40
1
 40
1
 40
1
 10
80.591188
 20
81.333983
 30
0.0
 10
85.743421
 20
94.072696
 30
0.0
 10
78.723058
 20
98.824393
 30
0.0
 10
78.409443
 20
99.018533
 30
0.0
  0
SPLINE
  5
130
100
AcDbEntity
  8
Layer_1
 62
7
100
AcDbSpline
 70
8
 71
3
 72
8
 73
4
 74
0
 40
0
 40
0
 40
0
 40
0
 40
1
 40
1
 40
1
 40
1
 10
78.409443
 20
99.018533
 30
0.0
 10
78.020474
 20
99.225637
 30
0.0
 10
77.559895
 20
99.250381
 30
0.0
 10
77.150977
 20
99.086141
 30
0.0
  0
SPLINE
  5
131
100
AcDbEntity
  8
Layer_1
 62
7
100
AcDbSpline
 70
8
 71
3
 72
8
 73
4
 74
0
 40
0
 40
0
 40
0
 40
0
 40
1
 40
1
 40
1
 40
1
 10
77.150977
 20
99.086141
 30
0.0
 10
76.742059
 20
98.921900
 30
0.0
 10
76.426553
 20
98.585446
 30
0.0
 10
76.288903
 20
98.166827
 30
0.0
  0
SPLINE
  5
132
100
AcDbEntity
  8
Layer_1
 62
7
100
AcDbSpline
 70
8
 71
3
 72
8
 73
4
 74
0
 40
0
 40
0
 40
0
 40
0
 40
1
 40
1
 40
1
 40
1
 10
76.288903
 20
98.166827
 30
0.0
 10
75.183797
 20
93.955438
 30
0.0
 10
67.821323
 20
90.475812
 30
0.0
 10
64.341697
 20
89.206430
 30
0.0
  0
SPLINE
  5
133
100
AcDbEntity
  8
Layer_1
 62
7
100
AcDbSpline
 70
8
 71
3
 72
8
 73
4
 74
0
 40
0
 40
0
 40
0
 40
0
 40
1
 40
1
 40
1
 40
1
 10
64.341697
 20
89.206430
 30
0.0
 10
63.385872
 20
89.729393
 30
0.0
 10
62.386532
 20
90.168553
 30
0.0
 10
61.354888
 20
90.518984
 30
0.0
  0
SPLINE
  5
134
100
AcDbEntity
  8
Layer_1
 62
7
100
AcDbSpline
 70
8
 71
3
 72
8
 73
4
 74
0
 40
0
 40
0
 40
0
 40
0
 40
1
 40
1
 40
1
 40
1
 10
61.354888
 20
90.518984
 30
0.0
 10
54.085893
 20
93.191549
 30
0.0
 10
46.103290
 20
93.191549
 30
0.0
 10
38.834295
 20
90.518984
 30
0.0
  0
SPLINE
  5
135
100
AcDbEntity
  8
Layer_1
 62
7
100
AcDbSpline
 70
8
 71
3
 72
8
 73
4
 74
0
 40
0
 40
0
 40
0
 40
0
 40
1
 40
1
 40
1
 40
1
 10
38.834295
 20
90.518984
 30
0.0
 10
37.828612
 20
90.164537
 30
0.0
 10
36.854798
 20
89.725446
 30
0.0
 10
35.923318
 20
89.206430
 30
0.0
  0
SPLINE
  5
136
100
AcDbEntity
  8
Layer_1
 62
7
100
AcDbSpline
 70
8
 71
3
 72
8
 73
4
 74
0
 40
0
 40
0
 40
0
 40
0
 40
1
 40
1
 40
1
 40
1
 10
35.923318
 20
89.206430
 30
0.0
 10
32.443692
 20
90.535558
 30
0.0
 10
25.080053
 20
94.015184
 30
0.0
 10
23.900280
 20
98.166827
 30
0.0
  0
SPLINE
  5
137
100
AcDbEntity
  8
Layer_1
 62
7
100
AcDbSpline
 70
8
 71
3
 72
8
 73
4
 74
0
 40
0
 40
0
 40
0
 40
0
 40
1
 40
1
 40
1
 40
1
 10
23.900280
 20
98.166827
 30
0.0
 10
23.720972
 20
98.798139
 30
0.0
 10
23.150522
 20
99.238405
 30
0.0
 10
22.494379
 20
99.251887
 30
0.0
  0
LINE
  5
138
100
AcDbEntity
  8
Layer_1
 62
7
100
AcDbLine
 10
22.494379
 20
99.251887
 30
0.0
 11
22.494411
 21
99.253229
 31
0.0
  0
LINE
  5
139
100
AcDbEntity
  8
Layer_1
 62
7
100
AcDbLine
 10
78.410559
 20
50.587528
 30
0.0
 11
78.410559
 21
50.587528
 31
0.0
  0
ENDSEC
  0
SECTION
  2
OBJECTS
  0
DICTIONARY
  5
C
330
0
100
AcDbDictionary
  3
ACAD_GROUP
350
D
  3
ACAD_MLINESTYLE
350
17
  0
DICTIONARY
  5
D
330
C
100
AcDbDictionary
  0
DICTIONARY
  5
1A
330
C
100
AcDbDictionary
  0
DICTIONARY
  5
17
330
C
100
AcDbDictionary
  3
STANDARD
350
18
  0
DICTIONARY
  5
19
330
C
100
AcDbDictionary
  0
ENDSEC
  0
EOF
