<?xml version="1.0" encoding="UTF-8" standalone="no"?>
<svg
   xmlns:dc="http://purl.org/dc/elements/1.1/"
   xmlns:cc="http://creativecommons.org/ns#"
   xmlns:rdf="http://www.w3.org/1999/02/22-rdf-syntax-ns#"
   xmlns:svg="http://www.w3.org/2000/svg"
   xmlns="http://www.w3.org/2000/svg"
   xmlns:sodipodi="http://sodipodi.sourceforge.net/DTD/sodipodi-0.dtd"
   xmlns:inkscape="http://www.inkscape.org/namespaces/inkscape"
   sodipodi:docname="screengraphic.svg"
   inkscape:version="1.0 (4035a4fb49, 2020-05-01)"
   id="svg8"
   version="1.1"
   viewBox="0 0 100 100"
   height="100mm"
   width="100mm">
  <defs
     id="defs2" />
  <sodipodi:namedview
     inkscape:window-maximized="1"
     inkscape:window-y="-9"
     inkscape:window-x="-9"
     inkscape:window-height="1001"
     inkscape:window-width="1920"
     showgrid="false"
     inkscape:document-rotation="0"
     inkscape:current-layer="g933"
     inkscape:document-units="mm"
     inkscape:cy="261.23886"
     inkscape:cx="68.407286"
     inkscape:zoom="1.4"
     inkscape:pageshadow="2"
     inkscape:pageopacity="0.0"
     borderopacity="1.0"
     bordercolor="#666666"
     pagecolor="#ffffff"
     id="base" />
  <metadata
     id="metadata5">
    <rdf:RDF>
      <cc:Work
         rdf:about="">
        <dc:format>image/svg+xml</dc:format>
        <dc:type
           rdf:resource="http://purl.org/dc/dcmitype/StillImage" />
        <dc:title></dc:title>
      </cc:Work>
    </rdf:RDF>
  </metadata>
  <g
     id="layer1"
     inkscape:groupmode="layer"
     inkscape:label="Layer 1">
    <g
       transform="matrix(0.26458333,0,0,0.26458333,95.641381,133.54144)"
       id="g933">
      <path
         d="m -276.46141,-501.90008 a 5.6443599,5.6443599 0 0 0 -3.15285,0.88191 c -1.41112,0.45126 -27.93121,18.40943 -8.34531,66.89449 a 35.672354,35.672354 0 0 1 2.31511,20.53793 c -13.82871,4.57199 -67.91094,24.0481 -72.99082,72.30742 a 5.6443599,5.6443599 0 0 0 2.4914,5.19234 5.6443599,5.6443599 0 0 0 5.64437,0.39663 l 4.05685,-2.14976 a 107.24284,107.24284 0 0 0 -2.48042,65.25192 5.6443599,5.6443599 0 0 0 4.28841,3.94665 5.6443599,5.6443599 0 0 0 5.64431,-1.91825 l 0.56228,-0.61733 c 0,17.3282 3.33015,42.50028 22.57743,54.63566 a 5.6443599,5.6443599 0 0 0 5.24751,0.45245 5.6443599,5.6443599 0 0 0 3.27415,-4.12299 l 1.1355,-5.64432 c 5.53144,13.3207 14.89979,28.51369 29.68802,32.5212 a 5.6443599,5.6443599 0 0 0 6.2066,-2.31506 c 0,0 21.28963,-31.35327 43.19255,-33.64571 a 59.491558,59.491558 0 0 1 5.22547,5.53411 5.6443599,5.6443599 0 0 0 1.85205,2.3261 59.491558,59.491558 0 0 1 5.52307,8.91853 5.6443599,5.6443599 0 0 0 0.30875,0.83785 25.851167,25.851167 0 0 0 1.41112,3.15291 9.1438628,9.1438628 0 0 0 0.39663,0.71654 59.491558,59.491558 0 0 1 3.83638,15.14722 35.672354,35.672354 0 0 0 19.64504,27.60441 37.083444,37.083444 0 0 0 16.53625,3.89148 35.841685,35.841685 0 0 0 16.82274,-4.01273 37.365662,37.365662 0 0 0 19.7553,-27.42806 59.773771,59.773771 0 0 1 18.28907,-36.42378 c 21.86035,2.23122 43.071304,33.32852 43.071304,33.65669 a 5.6443599,5.6443599 0 0 0 4.685277,2.54662 4.7412623,4.7412623 0 0 0 1.411122,0.0594 c 14.731761,-4.17684 24.04359,-19.13572 29.687962,-32.39995 l 1.014196,5.30261 a 5.6443599,5.6443599 0 0 0 3.329314,4.06795 5.6443599,5.6443599 0 0 0 5.247504,-0.39663 c 19.1908155,-12.13539 22.5774266,-37.30741 22.5774266,-54.63561 l 0.5622877,0.61733 a 5.6443599,5.6443599 0 0 0 5.64437151,1.91819 5.6443599,5.6443599 0 0 0 4.28840899,-3.94664 107.24284,107.24284 0 0 0 -2.4804787,-65.25186 l 4.067947,2.14969 a 5.6443599,5.6443599 0 0 0 5.6443719,-0.39663 5.6443599,5.6443599 0 0 0 2.370158,-5.2475 c -5.2492854,-48.25925 -59.151187,-68.01764 -72.979903,-72.30736 a 36.011016,36.011016 0 0 1 2.48042,-20.87969 c 19.473028,-48.14638 -7.06066,-66.10557 -8.245977,-66.83933 a 5.6443599,5.6443599 0 0 0 -8.014649,3.21905 c -4.176783,15.91708 -32.003493,29.06844 -45.154853,33.86611 a 71.288266,71.288266 0 0 0 -11.28874,-4.96084 123.32926,123.32926 0 0 0 -85.11731,0 71.288266,71.288266 0 0 0 -11.00213,4.96084 c -13.15136,-5.02348 -40.98247,-18.17484 -45.44146,-33.86611 a 5.6443599,5.6443599 0 0 0 -5.31365,-4.10102 z m -1.96231,15.27945 c 13.20783,20.99702 49.72334,33.30174 51.41661,33.86617 a 5.6443599,5.6443599 0 0 0 5.02699,-0.73864 51.363675,51.363675 0 0 1 10.94703,-5.19234 111.75832,111.75832 0 0 1 77.33434,0 51.363675,51.363675 0 0 1 10.94692,5.19234 5.6443599,5.6443599 0 0 0 5.02704,0.73864 c 1.69334,-0.56467 38.208789,-12.86915 51.416554,-33.86617 4.967073,6.99902 9.871505,21.66993 -0.683474,47.69043 a 45.154879,45.154879 0 0 0 -2.028451,31.78262 5.6443599,5.6443599 0 0 0 3.891542,3.56082 c 0.564663,0.16922 52.893821,14.27884 65.59362672,52.26538 l -8.06969012,-4.12304 a 5.6443599,5.6443599 0 0 0 -6.7246526,1.17961 5.6443599,5.6443599 0 0 0 -0.507662,7.12164 95.954119,95.954119 0 0 1 10.6713543,60.6107 l -4.5198553,-5.64437 a 5.6675949,5.6675949 0 0 0 -10.208402,4.91672 c 0.112813,0.39485 6.378551,37.02484 -9.425653,55.59477 l -3.5056,-17.55045 a 5.6443599,5.6443599 0 0 0 -5.644372,-4.51991 5.6443599,5.6443599 0 0 0 -5.644371,4.57507 c -2.201294,10.15983 -10.106929,36.56883 -24.782283,44.01935 -5.549193,-7.39892 -19.067552,-23.71031 -35.552851,-31.31954 7.451941,-5.06214 12.188459,-11.52286 14.000664,-19.41354 6.378136,-27.48803 -26.424854,-60.67684 -27.835974,-62.0879 a 5.6674544,5.6674544 0 0 0 -8.01453,8.01453 c 8.35368,8.29721 28.957759,33.69065 24.83738,51.52675 -1.80621,7.78926 -8.57676,13.77314 -19.8655,17.83711 a 6.2652393,6.2652393 0 0 0 -1.43315,0.4851 6.2652393,6.2652393 0 0 0 -0.18763,0.0879 5.6443599,5.6443599 0 0 0 -2.06146,1.60955 5.6443599,5.6443599 0 0 0 -0.0119,0.0119 70.893156,70.893156 0 0 0 -6.57039,6.7468 c -12.64673,-0.15735 -21.61441,-3.33609 -27.59343,-6.68066 a 35.220806,35.220806 0 0 0 19.85452,-15.57709 36.85767,36.85767 0 0 0 4.85058,-22.57743 20.206808,20.206808 0 0 1 8.3563,-18.45444 5.6443599,5.6443599 0 0 0 -6.09634,-9.49179 31.38264,31.38264 0 0 0 -13.49354,29.18095 25.343175,25.343175 0 0 1 -3.27416,15.75344 c -4.59199,7.81728 -12.38998,11.5703 -23.59168,11.28874 a 5.6443599,5.6443599 0 0 0 -1.52132,0 5.6443599,5.6443599 0 0 0 -0.7938,0.13181 24.552966,24.552966 0 0 1 -22.85299,-11.42103 25.343175,25.343175 0 0 1 -3.27415,-15.75349 31.38264,31.38264 0 0 0 -13.27308,-28.72893 5.6443599,5.6443599 0 0 0 -7.78302,1.69773 5.6443599,5.6443599 0 0 0 1.68668,7.79407 20.150365,20.150365 0 0 1 8.3563,18.45438 36.85767,36.85767 0 0 0 4.79554,22.57742 34.261264,34.261264 0 0 0 19.45753,15.15826 c -5.92118,3.29096 -14.72612,6.40438 -27.00917,6.63648 a 70.949599,70.949599 0 0 0 -7.25405,-7.38592 5.6443599,5.6443599 0 0 0 -2.99853,-1.65367 c -11.42299,-4.0078 -18.15524,-10.02577 -19.95355,-17.83723 -4.12044,-17.72329 16.54016,-43.23928 24.83738,-51.59296 a 5.6477106,5.6477106 0 0 0 -8.01459,-7.95943 c -1.41106,1.41106 -34.20307,34.59993 -27.82493,62.08797 1.79748,7.82619 6.45639,14.16092 13.80229,19.20405 -16.5439,7.5875 -30.09076,23.95958 -35.65213,31.37471 -14.61889,-7.45058 -22.73922,-33.75769 -24.77118,-44.0304 a 5.6443599,5.6443599 0 0 0 -5.64437,-4.56397 5.6443599,5.6443599 0 0 0 -5.64437,4.50881 l -3.56082,17.55045 c -15.74774,-18.56993 -9.37055,-55.19962 -9.37055,-55.59476 a 5.6443599,5.6443599 0 0 0 -9.93266,-4.63012 l -4.51992,5.64437 a 97.13943,97.13943 0 0 1 10.67136,-60.5556 5.6443599,5.6443599 0 0 0 -7.39727,-8.01459 l -8.01453,4.11201 c 12.53047,-38.09942 64.85286,-52.48591 65.41729,-52.48591 a 5.6443599,5.6443599 0 0 0 3.90252,-3.56076 45.154879,45.154879 0 0 0 -1.86309,-31.55117 c -10.66785,-26.30272 -5.5901,-41.03312 -0.84883,-48.03214 z m 106.06332,251.97877 c 5.54563,4.85877 16.46381,12.00547 34.17481,13.84629 a 70.893156,70.893156 0 0 0 -1.69767,3.15291 5.6443599,5.6443599 0 0 0 -1.4442,1.95132 15.578433,15.578433 0 0 1 -1.01425,2.2048 1.41109,1.41109 0 0 0 0,0.39663 33.866159,33.866159 0 0 1 -60.04847,0 l -0.23157,-0.4186 a 70.949599,70.949599 0 0 0 -3.61586,-7.32007 c 17.54658,-1.89527 28.37018,-8.99969 33.87715,-13.81322 z m 24.79327,43.35797 a 25.56895,25.56895 0 0 1 -36.09299,16.11723 24.383634,24.383634 0 0 1 -13.18491,-15.75344 44.477555,44.477555 0 0 0 24.47359,6.94518 44.533999,44.533999 0 0 0 24.80431,-7.30897 z"
         style="fill:none;stroke:#000000;stroke-width:5.64436"
         id="path877" />
      <path
         style="fill:none;stroke:#000000;stroke-width:5.64436"
         d="m -64.729436,-245.49288 a 5.6443599,5.6443599 0 0 1 -4.684802,-2.53998 5.6443599,5.6443599 0 0 1 1.523996,-7.7892 65.982567,65.982567 0 0 0 30.027947,-42.50206 c 7.337707,-37.36566 -18.682797,-76.59393 -18.908603,-76.98907 a 5.6443599,5.6443599 0 1 1 9.313196,-6.2652 c 1.185316,1.74974 28.955562,43.57445 20.658404,85.45556 a 76.650407,76.650407 0 0 1 -34.82574,49.67038 5.6443599,5.6443599 0 0 1 -3.104398,0.95957 z"
         id="path883" />
      <path
         style="fill:none;stroke:#000000;stroke-width:5.64436"
         d="m -76.413265,-279.18971 a 5.6443599,5.6443599 0 0 1 -5.644372,-4.85414 41.429602,41.429602 0 0 1 13.038485,-37.87368 30.366656,30.366656 0 0 0 0,-38.60743 5.6443599,5.6443599 0 0 1 0.508256,-7.95854 5.6443599,5.6443599 0 0 1 7.958539,0.50766 41.824707,41.824707 0 0 1 0,53.45207 4.8541495,4.8541495 0 0 1 -1.072384,1.07244 29.858664,29.858664 0 0 0 -9.143856,27.82672 5.6443599,5.6443599 0 0 1 -4.797733,6.37813 z m 11.288743,-38.77678 z"
         id="path885" />
      <path
         style="fill:none;stroke:#000000;stroke-width:5.64436"
         d="m -280.00531,-245.49288 a 5.6443599,5.6443599 0 0 1 -3.1044,-0.95957 76.650407,76.650407 0 0 1 -34.82568,-49.67038 c -8.29722,-41.88111 19.47303,-83.70582 20.60188,-85.45556 a 5.6443599,5.6443599 0 0 1 7.84567,-1.58047 5.6443599,5.6443599 0 0 1 1.52399,7.84567 c 0,0.39485 -26.30271,39.79275 -18.9086,77.04553 a 66.03901,66.03901 0 0 0 30.02801,42.4456 5.6443599,5.6443599 0 0 1 1.52393,7.7892 5.6443599,5.6443599 0 0 1 -4.6848,2.53998 z"
         id="path887" />
      <path
         style="fill:none;stroke:#000000;stroke-width:5.64436"
         d="m -268.32148,-279.18971 h -0.79023 a 5.6443599,5.6443599 0 0 1 -4.85414,-6.43461 29.915107,29.915107 0 0 0 -9.3696,-27.82665 4.8541495,4.8541495 0 0 1 -1.07245,-1.07244 41.824707,41.824707 0 0 1 0,-53.45207 5.6602139,5.6602139 0 0 1 8.52297,7.45052 30.592431,30.592431 0 0 0 0,38.60743 41.429602,41.429602 0 0 1 13.20782,37.87368 5.6443599,5.6443599 0 0 1 -5.64437,4.85414 z"
         id="path889" />
      <path
         style="fill:none;stroke:#000000;stroke-width:5.64436"
         d="m -211.87788,-333.09334 a 5.6443599,5.6443599 0 0 1 -4.68481,-2.48356 19.021493,19.021493 0 0 0 -8.18434,-6.71676 c -1.5804,-0.62089 -3.33014,-1.12891 -5.13635,-1.63687 a 50.065472,50.065472 0 0 1 -6.94256,-2.31416 32.398626,32.398626 0 0 1 -16.93312,-29.29425 22.57744,22.57744 0 0 1 -9.93403,-2.70931 13.772238,13.772238 0 0 1 -6.94256,-14.28021 5.7617423,5.7617423 0 0 1 11.28869,2.31417 c 0,0.39485 0.45184,1.524 1.58046,2.20129 a 14.788223,14.788223 0 0 0 6.82963,1.29819 h 3.89463 3.72529 a 99.679397,99.679397 0 0 1 11.62736,0 32.059965,32.059965 0 0 1 20.88415,8.29722 29.745777,29.745777 0 0 1 8.015,21.3357 78.400155,78.400155 0 0 1 -3.44307,19.75525 5.6443599,5.6443599 0 0 1 -4.51552,4.12037 z m -30.59244,-42.55847 a 21.787229,21.787229 0 0 0 10.15984,19.07788 35.841685,35.841685 0 0 0 5.64437,1.7498 67.732315,67.732315 0 0 1 6.54747,2.14483 30.705318,30.705318 0 0 1 5.3057,2.93506 44.590443,44.590443 0 0 0 0.73376,-7.61986 18.908606,18.908606 0 0 0 -4.6848,-13.3207 21.900116,21.900116 0 0 0 -13.71584,-5.07994 94.655918,94.655918 0 0 0 -9.76475,0.11281 z"
         id="path895" />
      <path
         style="fill:none;stroke:#000000;stroke-width:5.64436"
         d="m -132.85686,-333.09334 h -0.95951 a 5.6443599,5.6443599 0 0 1 -4.68486,-4.2333 80.88368,80.88368 0 0 1 -3.38661,-20.09392 29.745777,29.745777 0 0 1 8.015,-21.33565 32.059965,32.059965 0 0 1 20.88415,-8.29722 99.622955,99.622955 0 0 1 11.62736,0 h 3.725294 3.89463 a 14.788223,14.788223 0 0 0 6.773222,-1.07244 c 1.12885,-0.6773 1.693276,-1.80621 1.580402,-2.14489 a 5.7674869,5.7674869 0 1 1 11.288743,-2.37063 13.828682,13.828682 0 0 1 -6.942561,14.28027 23.085432,23.085432 0 0 1 -9.934087,2.70931 32.398626,32.398626 0 0 1 -16.933113,29.29418 50.065472,50.065472 0 0 1 -6.94256,2.31423 c -1.80615,0.50826 -3.55595,1.01598 -5.13636,1.63687 a 19.021493,19.021493 0 0 0 -8.18428,6.71675 5.6443599,5.6443599 0 0 1 -4.68486,2.59644 z m 24.49651,-42.78428 h -3.66883 a 21.900116,21.900116 0 0 0 -13.71578,5.07995 18.908606,18.908606 0 0 0 -4.6848,13.3207 44.590443,44.590443 0 0 0 0.73376,7.61986 30.705318,30.705318 0 0 1 5.3057,-2.93506 67.732315,67.732315 0 0 1 6.54747,-2.14489 35.841685,35.841685 0 0 0 5.64437,-1.74974 21.787229,21.787229 0 0 0 10.15984,-19.07794 c -2.59644,0 -4.57193,-0.11282 -6.54748,-0.11282 z"
         id="path897" />
      <path
         style="fill:none;stroke:#000000;stroke-width:5.64436"
         d="m -131.78442,-430.23279 a 5.6443599,5.6443599 0 0 1 -1.91908,-0.33844 111.75832,111.75832 0 0 0 -77.32775,0 5.6517633,5.6517633 0 0 1 -3.89457,-10.61139 123.32926,123.32926 0 0 1 85.11695,0 5.6443599,5.6443599 0 0 1 -1.97555,10.95007 z"
         id="path899" />
      <path
         style="fill:none;stroke:#000000;stroke-width:5.64436"
         d="m -150.1286,-403.64786 a 5.6443599,5.6443599 0 0 1 -1.97554,-0.33844 58.193349,58.193349 0 0 0 -40.52646,0 5.6517671,5.6517671 0 0 1 -3.89463,-10.61139 69.764288,69.764288 0 0 1 48.31572,0 5.6443599,5.6443599 0 0 1 -1.91909,10.95007 z"
         id="path901" />
    </g>
  </g>
</svg>
